<?xml version="1.0" standalone="no"?>
<!DOCTYPE svg PUBLIC "-//W3C//DTD SVG 20010904//EN"
 "http://www.w3.org/TR/2001/REC-SVG-20010904/DTD/svg10.dtd">
<svg version="1.0" xmlns="http://www.w3.org/2000/svg"
 width="946.000000pt" height="946.000000pt" viewBox="0 0 946.000000 946.000000"
 preserveAspectRatio="xMidYMid meet">
<metadata>
Created by potrace 1.14, written by Peter Selinger 2001-2017
</metadata>
<g transform="translate(0.000000,946.000000) scale(0.100000,-0.100000)"
fill="#000000" stroke="none">
<path d="M4528 9355 c-1 -1 -50 -6 -108 -9 -101 -6 -150 -11 -215 -21 -16 -2
-52 -7 -80 -10 -685 -85 -1443 -386 -2035 -809 -453 -324 -858 -739 -1154
-1181 -37 -55 -70 -104 -74 -110 -4 -5 -23 -37 -43 -70 -281 -462 -467 -927
-585 -1460 -6 -27 -41 -221 -48 -265 -3 -19 -8 -48 -10 -65 -3 -16 -7 -55 -11
-85 -3 -30 -7 -66 -10 -80 -25 -152 -26 -837 0 -971 2 -10 6 -46 10 -81 3 -35
8 -76 11 -93 3 -16 7 -43 9 -60 95 -624 314 -1211 663 -1777 39 -64 57 -90
161 -238 41 -59 152 -203 184 -240 7 -8 38 -44 68 -79 421 -499 1032 -954
1624 -1211 66 -28 129 -56 140 -61 183 -81 599 -206 835 -250 25 -4 59 -11 75
-14 106 -20 135 -25 175 -29 25 -3 68 -8 95 -12 177 -22 297 -28 550 -28 221
0 401 7 475 18 14 3 54 7 90 11 36 4 74 9 85 11 11 1 38 6 61 9 90 12 265 46
354 69 8 3 37 9 65 16 119 27 412 120 535 170 30 12 60 23 65 24 6 1 20 7 32
14 12 7 29 9 39 5 12 -4 15 -3 10 5 -5 8 0 12 13 12 11 0 22 4 26 10 3 5 13 6
22 3 12 -5 14 -3 8 7 -6 9 -4 11 4 6 7 -5 20 -1 29 8 9 9 85 51 167 92 222
113 420 233 609 368 76 55 156 115 166 126 3 3 22 18 44 34 99 74 333 291 471
437 89 94 232 262 300 354 33 44 62 82 65 85 22 22 202 296 262 400 245 422
446 940 534 1375 18 92 46 244 50 274 2 20 6 52 9 71 3 19 8 58 11 85 3 28 7
61 9 75 26 167 26 781 0 960 -2 14 -7 50 -10 80 -13 109 -16 127 -36 245 -11
66 -26 147 -34 180 -8 33 -23 98 -34 145 -110 479 -370 1065 -660 1485 -82
120 -127 183 -161 225 -19 24 -42 53 -50 64 -148 190 -390 444 -590 617 -47
41 -87 77 -90 80 -14 18 -319 242 -405 298 -407 264 -809 448 -1280 587 -49
14 -98 28 -108 30 -10 2 -26 5 -35 8 -9 3 -28 7 -42 10 -14 2 -52 11 -85 19
-33 9 -80 19 -105 22 -25 3 -52 8 -60 10 -14 4 -33 7 -105 19 -16 3 -54 8 -84
11 -30 4 -63 9 -75 11 -12 2 -52 7 -91 10 -38 3 -86 8 -105 10 -39 6 -586 14
-592 9z"/>
<path d="M6615 400 c3 -5 8 -10 11 -10 2 0 4 5 4 10 0 6 -5 10 -11 10 -5 0 -7
-4 -4 -10z"/>
<path d="M6170 29 c0 -5 5 -7 10 -4 6 3 10 8 10 11 0 2 -4 4 -10 4 -5 0 -10
-5 -10 -11z"/>
</g>
</svg>
